<?xml version="1.0" encoding="utf-8"?>
<!-- Generator: Adobe Illustrator 27.3.1, SVG Export Plug-In . SVG Version: 6.00 Build 0)  -->
<svg version="1.1" id="Layer_1" xmlns="http://www.w3.org/2000/svg" xmlns:xlink="http://www.w3.org/1999/xlink" x="0px" y="0px"
	 viewBox="0 0 500 500" style="enable-background:new 0 0 500 500;" xml:space="preserve">
<style type="text/css">
	.st0{fill:#FF0000;}
</style>
<path class="st0" d="M89,283.9c23.4,0,44.2,15.1,51.4,37.4c7.2-22.3,28-37.4,51.4-37.4c23.4,0,44.2,15.1,51.4,37.4
	c7.2-22.3,28-37.4,51.4-37.4c23.4,0,44.2,15.1,51.4,37.4c8.1-25.2,33.3-40.8,59.5-36.8c26.2,3.9,45.6,26.2,46,52.7
	c12.4-8.7,22.9-33.7,26.5-50.6c2.3-5-0.7-10.8-6.2-11.9l-42.6-14.3c-1.4-0.3-2.7-0.9-3.9-1.7l-55.9-50.4c-1.7-1.3-3.8-2-5.9-2H100.1
	c-3.9,0-7.6,1.4-10.6,3.9l-64.8,61.2c-3.9,3.3-5.7,8.5-4.7,13.5l17.4,36.7C44.6,299.2,65.4,284,89,283.9z M297.5,223.9h59.3
	l24.7,21.8h-84V223.9z M347.1,163.4h-99.8v8.8H207v17.1h-66.2v-17.1h-14.6v-32.8h26.5v-14.1h43.1v14.1h51.5v9.1h99.8V163.4z
	 M89,374.9C68.6,374.9,52,358.4,52,338s16.5-36.9,36.9-36.9c4.8,0,9.7,1,14.1,2.8c13.8,5.7,22.8,19.2,22.8,34.1
	C125.9,358.4,109.3,374.9,89,374.9L89,374.9z M191.8,374.9c-20.4,0-36.9-16.5-36.9-36.9c0-20.4,16.5-36.9,36.9-36.9
	c4.8,0,9.7,1,14.1,2.8c13.8,5.7,22.8,19.2,22.8,34.1c0,20.4-16.5,36.9-36.8,36.9H191.8z M294.6,374.9c-20.4,0-36.9-16.5-36.9-36.9
	c0-20.4,16.5-36.9,36.9-36.9c4.8,0,9.7,1,14.1,2.8c13.8,5.7,22.8,19.2,22.8,34.1c0,20.4-16.5,36.9-36.8,36.9H294.6z M397.5,374.9
	c-20.4,0-36.9-16.5-36.9-36.9c0-20.4,16.5-36.9,36.9-36.9c4.8,0,9.7,1,14.1,2.8c13.8,5.7,22.8,19.2,22.8,34.1
	c0,20.4-16.5,36.9-36.8,36.9H397.5z"/>
</svg>
