<?xml version="1.0" encoding="utf-8"?>
<!-- Generator: Adobe Illustrator 27.3.1, SVG Export Plug-In . SVG Version: 6.00 Build 0)  -->
<svg version="1.1" id="Layer_1" xmlns="http://www.w3.org/2000/svg" xmlns:xlink="http://www.w3.org/1999/xlink" x="0px" y="0px"
	 viewBox="0 0 500 500" style="enable-background:new 0 0 500 500;" xml:space="preserve">
<style type="text/css">
	.st0{fill:#FF0000;}
</style>
<path class="st0" d="M18.8,274.2c2.1,0,68.2,0,99.3,0c1.4,0,1.4-5.8,1.4-8c8.6,0,17.3,0,25.9,0c-0.1-1.1,34.6-48.5,36-48.5
	c5.2,0,35.9,0,37.7,0c0.7,0,15.7-23.4,16.5-24.2c0.4-0.4,9.8,0,13.9,0c1,0,8.5-23,8.6-23.5c7.1,0,14.5,0,21.8,0
	c0-10.7,0-21.5,0-32.4c5.5,0,11,0,16.5,0c0,10.7,0,21.5,0,32.4c1.7,0,3.4,0,5.1,0c1.4,0,7.7,23,8.6,23.5c0.2,0.1,10.6,0,15.2,0
	c0.7,0,25.1,72.7,26.4,72.7c22.1,0,90.5,0,102.6,0c0.4,0,8.3,22.1,8.3,22.4c-0.1,0.9,18.3,1.2,18.5,1.3c0,0.3,0,22.8-4.8,38.9
	c-5.3,17.7-24.3,33.6-24.6,33.8c0,0.1-359.3-0.4-360-0.8c-2.4-1.2-42.6-19.7-62.1-63.8C28.8,296.5,19.2,275.4,18.8,274.2z"/>
</svg>
