<?xml version="1.0" encoding="utf-8"?>
<!-- Generator: Adobe Illustrator 27.3.1, SVG Export Plug-In . SVG Version: 6.00 Build 0)  -->
<svg version="1.1" id="Layer_1" xmlns="http://www.w3.org/2000/svg" xmlns:xlink="http://www.w3.org/1999/xlink" x="0px" y="0px"
	 viewBox="0 0 500 500" style="enable-background:new 0 0 500 500;" xml:space="preserve">
<style type="text/css">
	.st0{fill:#35978C;}
</style>
<g>
	<path class="st0" d="M144.9,174.7c0-9.3,0-18.4,0-27.6c21.7,0,43.1,0,64.8,0c0,2.5,0.1,5,0,7.5c0,1.3,0.2,1.8,1.7,2.1
		c13.4,2.4,26.8,5,40.2,7.5c9.8,1.8,19.6,3.7,29.4,5.5c1,0.2,2.1,0.1,3.1,0.1c53.1,0,106.2,0,159.3,0c1.5,0,2.6-0.3,3.5-1.6
		c1.5-2.1,3.8-3.1,6.5-3.1c9.3,0,18.6,0,27.8,0c5.1,0,8.5,3.4,8.4,8.4c0,2.9,0.1,5.9-0.4,8.8c-0.6,3.3-3.3,5.5-6.7,5.5
		c-10,0.1-20,0.1-30,0c-2.5,0-4.6-1.3-6-3.4c-0.7-1.1-1.5-1.4-2.7-1.4c-12.6,0-25.1,0-37.7,0c-40.8,0-81.6,0-122.4,0
		c-0.7,0-1.4,0-2.3,0c0,7.2,0,14.3,0,21.7c1.6,0,3.1,0,4.6,0c18.4,0,36.9,0,55.3,0c1.2,0,2.6,0.4,3.6,1
		c10.1,5.8,20.1,11.6,30.1,17.4c1.5,0.9,3,1.3,4.7,1.3c4.9-0.1,9.8,0,14.9,0c0,4.5,0,8.9,0,13.5c0.9,0,1.6,0,2.3,0
		c5.3,0,10.7,0,16,0.1c0.7,0,1.7,0.5,2.1,1.1c4.7,6.8,9.3,13.6,13.8,20.4c0.5,0.8,0.9,1.9,0.9,2.8c0.1,4.6,0,9.1,0,13.9
		c-136.1,0-272.1,0-408.2,0c0-7.8,0-15.5,0-23.4c7.4,0,14.7,0,22.2,0c0-4.5,0-8.9,0-13.4c12,0,23.8,0,35.8,0c0,1.9,0,3.8,0,5.8
		c5.9,0,11.7,0,17.6,0c0-3.7,0-7.4,0-11.2c13.1,0,26.1,0,39.1,0c0-9.5,0-18.9,0-28.4c-11.9,0-23.6,0-35.5,0c0-10.4,0-20.6,0-31.1
		C115.7,174.7,130.2,174.7,144.9,174.7z"/>
	<path class="st0" d="M226.8,353c-59.9,0-119.7,0-179.6,0c-15.8,0-30.3-11.3-34.3-27c-5.1-19.7,7.8-40.1,28.5-44.1
		c1.8-0.3,3.7-0.4,5.6-0.4c119.8,0,239.5,0,359.3,0c16.5,0,31.6,12.6,34.6,28.7c3.6,19-8,37.1-26.8,41.8c-2.4,0.6-4.9,0.9-7.4,0.9
		C346.7,353,286.8,353,226.8,353z M63.7,336.2c10.6,0,18.8-7.5,19.1-18.7c0.3-10.5-8.4-19-19-19.2c-10.7-0.1-18.8,8.1-18.9,18.9
		C44.9,327.7,53.2,336.1,63.7,336.2z M388.8,336.2c10.5,0.1,18.9-8.2,19.1-18.8c0.1-10.7-7.9-18.9-18.8-19
		c-10.9-0.2-19.1,7.9-19.2,19C369.8,327.6,378.3,336.1,388.8,336.2z M195.1,298.3c-10.2-0.7-19,7-19.7,17.2
		c-0.9,11.5,8,20.1,18,20.6c9.9,0.5,19.1-7.4,19.8-17.3C214,307.9,206.2,299.1,195.1,298.3z M148.3,317.3c0.4-9.7-7.8-18.9-18.8-19
		c-10.7-0.1-19,8.2-19.1,19c0,10.3,8.5,18.8,18.9,18.9C139.8,336.2,148.2,327.9,148.3,317.3z M323.8,336.2
		c10.3,0.3,18.9-8,19.3-18.5c0.3-10.4-8.2-19.1-18.8-19.3c-10.9-0.2-19,8.2-19.1,18.5C305,327.5,313,335.9,323.8,336.2z
		 M259.1,298.3c-11,0-19.3,8.6-18.9,20.1c0.4,9.6,9.1,18,19.2,17.8c10.5-0.2,18.9-8.8,18.8-19.2C278,306.6,269.4,298.2,259.1,298.3z
		"/>
</g>
</svg>
